# File created by Blade
# Date/Time:  Thu Sep 25 19:36:54 2014
# Frame Rate: 120.000 fps
#------------------------------------------------------
:FULLY-SPECIFIED
:DEGREES
969
root -4.081641 32.763649 1.489125 4.982030 -7.085828 2.391773
Spine -4.673683 1.165313 5.224962
Head -15.446534 9.357167 -1.735628
LeftShoulder -8.742639 14.926338 6.659110
LeftArm 40.415640 43.995492 -60.642840
LeftForeArm 12.834637 -0.000000 33.755599
LeftHand -22.312208 -0.000000 -5.594318
LeftHandThumb1 -26.253704 0.000000 33.147579
RightShoulder -20.456854 12.057167 -21.343347
RightArm -8.715469 -39.326959 91.312194
RightForeArm -21.868090 0.000000 28.764392
RightHand -4.916904 -0.000000 9.187136
RightHandThumb1 -24.326973 -0.000000 -32.862282
LeftUpLeg -5.155892 2.151066 -1.362849
LeftLeg 9.234793 -0.000000 -0.000000
LeftFoot -15.785291 14.002681 -8.751006
LeftToeBase 5.697701 -0.000000 -0.000000
RightUpLeg -7.768864 0.369404 -3.321088
RightLeg 15.005706 -0.000000 -0.000000
RightFoot -15.799957 -6.421717 1.507403
RightToeBase -0.016219 -0.000000 0.000000
970
root -4.150593 32.784176 1.536534 4.567929 -6.164128 2.457359
Spine -4.604919 1.186424 5.294337
Head -15.116428 8.541106 -1.515925
LeftShoulder -8.770955 14.899668 6.682147
LeftArm 39.953751 44.292535 -61.384630
LeftForeArm 12.817796 0.000000 33.462313
LeftHand -22.181286 -0.000000 -5.834627
LeftHandThumb1 -26.253704 0.000000 33.147579
RightShoulder -20.258216 12.055338 -21.287894
RightArm -8.867769 -39.801558 91.336831
RightForeArm -21.968889 -0.000000 28.688072
RightHand -4.839878 -0.000000 9.317501
RightHandThumb1 -24.326973 -0.000000 -32.862282
LeftUpLeg -4.686404 1.948606 -1.262235
LeftLeg 9.086019 -0.000000 -0.000000
LeftFoot -15.363637 13.631508 -8.700565
LeftToeBase 5.705539 -0.000000 -0.000000
RightUpLeg -6.800061 -0.476495 -3.268173
RightLeg 14.344753 -0.000000 -0.000000
RightFoot -15.658211 -6.017928 1.888787
RightToeBase -0.179773 -0.000000 0.000000
971
root -4.276238 32.807046 1.584326 4.221971 -5.381225 2.184010
Spine -4.613842 1.415745 5.545059
Head -14.736128 7.658107 -1.054054
LeftShoulder -8.695093 14.892249 6.838578
LeftArm 39.573662 44.742907 -61.931933
LeftForeArm 12.189515 -0.000000 33.096623
LeftHand -22.266402 -0.000000 -5.444483
LeftHandThumb1 -26.253704 0.000000 33.147579
RightShoulder -20.240823 11.997956 -21.135753
RightArm -8.952252 -40.399340 91.331772
RightForeArm -21.902156 -0.000000 28.508492
RightHand -4.684238 -0.000000 9.265037
RightHandThumb1 -24.326973 -0.000000 -32.862282
LeftUpLeg -4.203843 2.221261 -0.714915
LeftLeg 8.871351 -0.000000 -0.000000
LeftFoot -14.998743 12.800138 -8.731726
LeftToeBase 5.695059 -0.000000 -0.000000
RightUpLeg -5.807125 -1.904799 -2.802183
RightLeg 13.459616 -0.000000 -0.000000
RightFoot -15.185665 -4.950373 1.864862
RightToeBase -0.229971 -0.000000 0.000000
972
root -4.376390 32.831110 1.624787 3.948431 -4.631318 2.049633
Spine -4.702979 1.623386 5.643505
Head -14.417774 6.813740 -0.552177
LeftShoulder -8.645807 14.786838 7.003602
LeftArm 38.915721 45.063014 -62.742111
LeftForeArm 12.248089 -0.000000 32.688297
LeftHand -22.233245 0.000000 -5.812381
LeftHandThumb1 -26.253704 0.000000 33.147579
RightShoulder -20.258957 12.020713 -21.014146
RightArm -9.109579 -40.989808 91.359010
RightForeArm -21.689902 -0.000000 28.340736
RightHand -4.587704 0.000000 9.466256
RightHandThumb1 -24.326973 -0.000000 -32.862282
LeftUpLeg -3.813624 2.350951 -0.360078
LeftLeg 8.636544 -0.000000 -0.000000
LeftFoot -14.594147 12.037570 -8.896399
LeftToeBase 5.659871 -0.000000 -0.000000
RightUpLeg -4.899325 -2.734386 -2.527176
RightLeg 12.548555 -0.000000 -0.000000
RightFoot -14.765519 -4.448562 2.134392
RightToeBase -0.359376 -0.000000 0.000000
973
root -4.465853 32.854392 1.668974 3.676869 -3.929372 2.053754
Spine -4.810848 1.836664 5.520540
Head -14.139826 6.002999 0.070193
LeftShoulder -8.610519 14.724708 7.182961
LeftArm 38.664442 45.718208 -62.930762
LeftForeArm 11.149828 -0.000000 32.323445
LeftHand -22.694250 -0.000000 -4.919565
LeftHandThumb1 -26.253704 0.000000 33.147579
RightShoulder -20.285498 12.013818 -20.846673
RightArm -9.274582 -41.425223 91.430422
RightForeArm -21.649735 -0.000000 28.145398
RightHand -4.322310 -0.000000 9.830197
RightHandThumb1 -24.326973 -0.000000 -32.862282
LeftUpLeg -3.397956 2.564962 -0.175834
LeftLeg 8.258731 -0.000000 -0.000000
LeftFoot -14.124089 11.441365 -9.214644
LeftToeBase 5.564419 -0.000000 -0.000000
RightUpLeg -3.964341 -3.126152 -2.395945
RightLeg 11.564715 -0.000000 -0.000000
RightFoot -14.430023 -4.427769 2.464252
RightToeBase -0.583680 -0.000000 0.000000
974
root -4.546295 32.875120 1.696029 3.488056 -3.138237 2.084817
Spine -4.955640 1.965422 5.356143
Head -13.963280 5.205493 0.697796
LeftShoulder -8.633766 14.685105 7.324107
LeftArm 38.587700 46.390529 -62.804745
LeftForeArm 10.690961 -0.000000 32.055201
LeftHand -22.688490 -0.000000 -4.927567
LeftHandThumb1 -26.253704 0.000000 33.147579
RightShoulder -20.390847 12.020782 -20.695039
RightArm -9.421765 -41.952732 91.487110
RightForeArm -21.568765 0.000000 27.986952
RightHand -4.209479 0.000000 10.057712
RightHandThumb1 -24.326973 -0.000000 -32.862282
LeftUpLeg -3.145071 2.557765 -0.020859
LeftLeg 8.023454 -0.000000 -0.000000
LeftFoot -13.598225 10.798057 -9.520697
LeftToeBase 5.173431 -0.000000 -0.000000
RightUpLeg -3.161984 -3.272687 -2.292569
RightLeg 10.646335 -0.000000 -0.000000
RightFoot -14.146561 -4.648966 2.912775
RightToeBase -0.476162 -0.000000 0.000000
975
root -4.625655 32.892449 1.722681 3.321494 -2.336410 2.093998
Spine -5.105013 2.020999 5.216722
Head -13.909990 4.421876 1.307733
LeftShoulder -8.574468 14.635965 7.487073
LeftArm 37.869423 46.550385 -63.524485
LeftForeArm 10.750188 0.000000 31.663822
LeftHand -22.434229 -0.000000 -5.302997
LeftHandThumb1 -26.253704 0.000000 33.147579
RightShoulder -20.458122 12.029396 -20.558034
RightArm -9.573487 -42.220851 91.531785
RightForeArm -21.901709 -0.000000 27.938441
RightHand -4.183666 0.000000 10.329851
RightHandThumb1 -24.326973 -0.000000 -32.862282
LeftUpLeg -2.949983 2.690892 0.149067
LeftLeg 7.849568 -0.000000 -0.000000
LeftFoot -13.132945 9.983219 -9.716650
LeftToeBase 4.969207 -0.000000 -0.000000
RightUpLeg -2.336760 -3.322862 -2.160762
RightLeg 9.631461 -0.000000 -0.000000
RightFoot -13.842894 -5.000017 3.307988
RightToeBase -0.295578 -0.000000 0.000000
976
root -4.699353 32.907731 1.741795 3.252037 -1.631800 2.150538
Spine -5.335329 2.201166 5.016263
Head -13.924965 3.610121 1.807374
LeftShoulder -8.576405 14.596068 7.585065
LeftArm 37.431845 46.811965 -63.824649
LeftForeArm 10.774027 -0.000000 31.276585
LeftHand -22.323456 -0.000000 -6.027946
LeftHandThumb1 -26.253704 0.000000 33.147579
RightShoulder -20.624816 11.978097 -20.468955
RightArm -9.724109 -42.607094 91.639252
RightForeArm -21.835574 -0.000000 27.863033
RightHand -4.045522 -0.000000 10.991134
RightHandThumb1 -24.326973 -0.000000 -32.862282
LeftUpLeg -2.834969 2.629502 0.247361
LeftLeg 7.658392 -0.000000 -0.000000
LeftFoot -12.692905 9.517353 -9.700158
LeftToeBase 4.918712 -0.000000 -0.000000
RightUpLeg -1.659428 -3.282702 -2.075624
RightLeg 8.663717 -0.000000 -0.000000
RightFoot -13.569037 -5.328833 3.749147
RightToeBase -0.339906 -0.000000 0.000000
977
root -4.772043 32.918167 1.758760 3.178373 -0.948049 2.225127
Spine -5.510170 2.318826 4.800527
Head -14.061092 2.812533 2.190645
LeftShoulder -8.526251 14.577057 7.614540
LeftArm 36.878756 46.931832 -64.072603
LeftForeArm 10.742355 -0.000000 31.018815
LeftHand -21.892896 -0.000000 -7.293961
LeftHandThumb1 -26.253704 0.000000 33.147579
RightShoulder -20.776870 11.880406 -20.381361
RightArm -9.764525 -42.922743 91.747055
RightForeArm -21.538827 0.000000 27.748499
RightHand -3.827549 -0.000000 11.466475
RightHandThumb1 -24.326973 -0.000000 -32.862282
LeftUpLeg -2.695124 2.468545 0.326416
LeftLeg 7.414636 -0.000000 -0.000000
LeftFoot -12.256261 9.017207 -10.235659
LeftToeBase 4.387361 -0.000000 -0.000000
RightUpLeg -0.987472 -3.271712 -2.020410
RightLeg 7.704076 -0.000000 -0.000000
RightFoot -13.333641 -5.658951 4.215934
RightToeBase -0.333217 -0.000000 0.000000
978
root -4.841431 32.925374 1.776884 3.127634 -0.320526 2.301454
Spine -5.695962 2.475644 4.587860
Head -14.247263 2.086826 2.543446
LeftShoulder -8.555773 14.688753 7.579707
LeftArm 36.585774 47.059866 -63.990350
LeftForeArm 10.626359 -0.000000 30.789249
LeftHand -21.480653 -0.000000 -8.230256
LeftHandThumb1 -26.253704 0.000000 33.147579
RightShoulder -20.920230 11.895125 -20.365693
RightArm -10.009297 -42.997737 91.931059
RightForeArm -21.742390 -0.000000 27.745928
RightHand -3.661459 -0.000000 11.935814
RightHandThumb1 -24.326973 -0.000000 -32.862282
LeftUpLeg -2.572096 2.329191 0.385329
LeftLeg 7.189603 -0.000000 -0.000000
LeftFoot -12.019467 8.753470 -10.529180
LeftToeBase 4.554866 -0.000000 -0.000000
RightUpLeg -0.382200 -3.290931 -1.979285
RightLeg 6.821490 -0.000000 -0.000000
RightFoot -13.145842 -5.859496 4.658668
RightToeBase -0.164526 -0.000000 0.000000
